<svg width="72" height="100" viewBox="0 0 72 100" fill="none" xmlns="http://www.w3.org/2000/svg">
<g clip-path="url(#clip0_32_159)">
<path d="M56.2465 0C57.4433 0.526302 57.8202 1.46649 57.8151 2.73882C57.7845 9.63951 57.7998 16.5402 57.7998 23.4409C57.7998 23.6683 57.81 23.8982 57.7896 24.123C57.6826 25.3059 56.8831 26.1286 55.8187 26.1618C54.7289 26.195 53.8096 25.3545 53.7434 24.1384C53.6798 22.9376 53.7231 21.7317 53.7205 20.5258C53.7205 18.6454 53.7205 16.7625 53.7205 14.8208H4.16075V77.3026H53.7205C53.7205 76.9474 53.7205 76.6025 53.7205 76.2576C53.7205 73.6849 53.6976 71.1147 53.7307 68.5419C53.7511 66.8762 55.0344 65.8261 56.3942 66.4163C56.9162 66.6437 57.3491 67.2338 57.6521 67.7576C57.8558 68.1127 57.7947 68.6416 57.7972 69.0938C57.8049 78.4369 57.8023 87.7775 57.8023 97.1207C57.8023 99.3357 57.153 99.9949 54.981 99.9949C37.5919 99.9949 20.2028 99.9949 2.81373 99.9949C0.707887 99.9949 0.0152781 99.3 0.0152781 97.1871C0.0101854 65.7137 0.0152781 34.2352 0 2.75926C0 1.50226 0.361583 0.544186 1.54564 0H56.2465ZM4.13529 95.8381H53.6467V81.4951H4.13529V95.8381ZM4.0869 10.6052H53.6492V4.14399H4.12765C4.11237 4.34838 4.08945 4.50167 4.08945 4.65752C4.08945 6.60944 4.08945 8.5588 4.08945 10.6052H4.0869Z" fill="black"/>
<path d="M63.58 55.5377C63.8729 56.0512 64.2344 56.6286 64.5425 57.2341C65.1282 58.3889 64.8252 59.582 63.8397 60.1287C62.8288 60.6883 61.7135 60.3485 61.0056 59.232C60.6415 58.6623 60.3207 58.0644 59.9947 57.5049C59.8623 57.5049 59.7961 57.4921 59.7376 57.5049C59.1137 57.6786 58.4924 57.8575 57.8023 58.0542C57.8023 58.6648 57.81 59.2805 57.8023 59.8937C57.7769 61.3449 56.9951 62.2774 55.7958 62.2953C54.5583 62.3132 53.7511 61.3653 53.7282 59.8554C53.7205 59.2729 53.7282 58.6878 53.7282 58.0568C53.0177 57.8549 52.3429 57.6659 51.5688 57.4461C51.2353 58.021 50.9144 58.6137 50.5579 59.1834C49.8322 60.3485 48.6838 60.7036 47.6576 60.1032C46.6824 59.5335 46.4125 58.3684 47.0134 57.1932C47.3215 56.5877 47.6755 56.0052 47.9912 55.4431C47.9505 55.3588 47.9403 55.3256 47.9199 55.3026C47.0083 54.3198 45.9524 54.1444 44.7522 54.7763C43.5249 55.4227 42.3561 55.1902 41.7654 54.1836C41.1619 53.154 41.5107 52.0298 42.6693 51.2736C42.8323 51.1663 42.9927 51.0462 43.1735 50.9798C44.1971 50.6093 44.4823 50.0447 44.08 48.9282C43.8279 48.2282 43.5886 47.9855 42.8985 48.0468C42.4172 48.0902 41.9232 48.0774 41.442 48.0289C40.3852 47.9216 39.6264 47.1194 39.5755 46.1076C39.5271 45.1623 40.1841 44.2937 41.1924 44.0944C41.7577 43.982 42.3536 43.9437 42.9291 43.9846C43.6446 44.0331 44.0163 43.8236 44.0622 43.0571C44.0851 42.679 44.271 42.3111 44.4136 41.8334C43.8534 41.4961 43.2754 41.1589 42.7075 40.8037C41.5362 40.0679 41.1619 38.9336 41.7425 37.9116C42.3383 36.8641 43.4689 36.6112 44.7115 37.2653C45.2844 37.5667 45.8395 37.904 46.3946 38.2182C46.471 38.1773 46.5372 38.1595 46.5831 38.116C47.0465 37.6638 47.5049 37.2065 48.0345 36.6853C47.7009 36.0926 47.3597 35.5152 47.0491 34.9224C46.4099 33.7012 46.6722 32.5311 47.6958 31.9409C48.7118 31.3558 49.8373 31.7289 50.5809 32.9015C50.6674 33.0395 50.7413 33.1826 50.8228 33.3257C51.6121 34.6925 51.961 34.8126 53.3971 34.1177C53.5652 34.0359 53.7001 33.7319 53.7205 33.5173C53.7689 33.0012 53.718 32.4749 53.7434 31.9562C53.8071 30.6405 54.6143 29.7744 55.7602 29.7616C56.9009 29.7488 57.7336 30.62 57.8125 31.9205C57.8252 32.1146 57.8176 32.3114 57.8176 32.5055C57.8227 34.1611 57.9628 34.3348 59.6153 34.5009C59.8216 34.5213 60.1221 34.3016 60.2621 34.1074C60.639 33.5837 60.9114 32.9782 61.3061 32.4672C61.9478 31.6369 62.9663 31.4453 63.827 31.9154C64.7081 32.3957 65.1155 33.4457 64.7055 34.4319C64.3974 35.1779 63.962 35.8729 63.5444 36.6674C64.0715 37.135 64.6215 37.6229 65.2352 38.1646C65.7113 37.8963 66.2893 37.5437 66.8877 37.2346C68.1049 36.6061 69.2737 36.8999 69.8339 37.95C70.3712 38.9566 70.007 40.0628 68.8866 40.7731C68.3392 41.118 67.7713 41.4297 67.1678 41.7797C67.3053 42.329 67.3817 42.8808 67.5905 43.3765C67.6975 43.6243 68.026 43.8951 68.2882 43.9386C68.9528 44.0459 69.6505 43.9616 70.3151 44.0791C71.3744 44.2681 72.0518 45.1751 71.9728 46.1511C71.8888 47.1705 71.13 47.9216 70.063 48.0315C69.9332 48.0442 69.8033 48.0442 69.6735 48.0468C68.3069 48.0843 67.481 48.826 67.1959 50.2721C67.6746 50.5557 68.1762 50.8444 68.6727 51.1433C69.9994 51.943 70.417 53.039 69.8135 54.1325C69.2177 55.2106 68.0056 55.4278 66.6738 54.692C66.1646 54.411 65.6629 54.1197 65.1053 53.8029C64.624 54.3522 64.158 54.8862 63.5978 55.5249L63.58 55.5377ZM56.2898 38.0368C52.2564 37.6817 47.9887 40.7424 47.7722 45.75C47.594 49.8633 50.6165 53.7109 55.2356 54.0584C59.2792 54.3624 63.5113 51.3962 63.7557 46.3197C63.9569 42.1399 60.7408 38.2795 56.2898 38.0343V38.0368Z" fill="black"/>
<path d="M16.8544 56.8253C17.0352 55.9719 16.7143 55.7113 15.9734 55.5964C14.3462 55.3434 13.5416 54.3113 13.8497 53.0466C14.084 52.0783 14.8606 51.4984 15.9402 51.5265C16.4241 51.5392 16.9028 51.621 17.435 51.6746C18.0257 51.1305 17.9391 50.7345 17.3178 50.1417C16.8009 49.6486 16.2916 48.8822 16.2509 48.2077C16.1567 46.6748 17.9009 45.7908 19.2531 46.5828C19.6121 46.7949 19.8998 47.1398 20.2691 47.3237C20.4677 47.4234 20.8293 47.3978 21.01 47.2726C21.1857 47.15 21.3283 46.8127 21.2978 46.5956C21.2392 46.151 21.0151 45.732 20.9311 45.29C20.7529 44.355 21.2698 43.4633 22.1508 43.098C22.9784 42.7556 23.9715 43.0137 24.4833 43.7801C24.7506 44.1787 24.855 44.6845 25.1224 45.0831C25.265 45.2952 25.6139 45.5046 25.843 45.4791C26.0646 45.4536 26.3294 45.1597 26.4312 44.9196C26.6069 44.5083 26.6197 44.0279 26.7928 43.6141C27.1493 42.7607 28.0787 42.283 28.9292 42.4516C29.8688 42.6381 30.5487 43.3943 30.5589 44.3601C30.5665 44.94 30.4698 45.52 30.4214 46.0999C31.0376 46.7387 31.4985 46.5368 31.967 45.8802C32.5119 45.1163 33.3039 44.5849 34.2206 44.9502C34.8037 45.1853 35.453 45.7627 35.6414 46.3324C35.8197 46.8664 35.4937 47.6124 35.2697 48.2205C35.1321 48.5935 34.7706 48.8847 34.5363 49.1811C34.8062 50.2414 35.4224 50.0089 36.1176 49.7559C37.3169 49.3191 38.2132 49.5924 38.7658 50.4815C39.2776 51.3042 39.2343 52.2342 38.5494 52.8959C38.2132 53.2229 37.7625 53.4963 37.3169 53.6266C36.5887 53.8386 36.3697 54.2219 36.6752 55.0087C37.0699 55.0931 37.5436 55.1697 38.0019 55.2949C39.1299 55.604 39.7691 56.5672 39.5806 57.6326C39.3922 58.6954 38.4577 59.3699 37.2864 59.2805C37.0928 59.2652 36.9019 59.2166 36.7109 59.1911C36.1354 59.1178 35.7382 59.4023 35.5192 60.0444C35.9062 60.4097 36.3366 60.7572 36.6956 61.1685C37.3653 61.9299 37.3755 63.0131 36.772 63.7643C36.1481 64.5435 35.0456 64.7351 34.1416 64.1884C33.8106 63.9891 33.5432 63.6774 33.202 63.5037C32.9958 63.3989 32.6163 63.3555 32.4712 63.4756C32.2777 63.6365 32.1274 63.9917 32.1504 64.2446C32.1911 64.6866 32.4356 65.1081 32.4967 65.5527C32.6291 66.5363 32.0816 67.4152 31.2158 67.7192C30.2864 68.0462 29.3061 67.6886 28.7994 66.7816C28.5345 66.3064 28.3537 65.7852 28.1449 65.3049C27.3148 65.0545 26.9813 65.4147 26.9074 66.1837C26.8769 66.5005 26.7852 66.825 26.663 67.1188C26.3065 67.9798 25.4382 68.4703 24.5546 68.34C23.6404 68.2072 22.9045 67.4356 22.8409 66.4878C22.818 66.1684 22.9071 65.8439 22.9224 65.522C22.9427 65.103 23.2025 64.6585 22.5735 64.3698C21.9242 64.0683 21.83 64.6508 21.4888 64.8731C20.8878 65.264 20.2691 65.8439 19.6197 65.9027C18.1454 66.0356 17.188 64.3596 17.8831 63.0157C18.1479 62.5022 18.5401 62.0551 18.8762 61.5773C18.6801 60.701 18.1912 60.6882 17.4426 60.9744C15.7544 61.6182 14.3641 60.816 14.3488 59.2524C14.3411 58.3863 14.7486 57.7629 15.5252 57.395C15.9632 57.188 16.4164 57.0118 16.862 56.8227L16.8544 56.8253ZM26.5433 61.1915C29.6269 61.332 32.3439 58.8359 32.489 55.7292C32.6418 52.5101 30.2151 49.7457 27.1162 49.6027C23.6837 49.4443 21.0635 51.8535 20.9184 55.3C20.786 58.3991 23.312 61.0433 26.5433 61.1915Z" fill="black"/>
<path d="M4.08691 10.6053C4.08691 8.55885 4.08691 6.60949 4.08691 4.65757C4.08691 4.50172 4.10983 4.34588 4.12511 4.14404H53.6492V10.6053H4.08691Z" fill="#0066FF"/>
<path d="M28.914 91.6073C27.2028 91.6022 25.8482 90.2047 25.8736 88.4801C25.8991 86.7914 27.2461 85.4679 28.9344 85.473C30.6659 85.4781 31.9976 86.8501 31.9696 88.5976C31.9416 90.289 30.5971 91.6149 28.914 91.6098V91.6073Z" fill="black"/>
</g>
<defs>
<clipPath id="clip0_32_159">
<rect width="71.9626" height="100" fill="white"/>
</clipPath>
</defs>
</svg>
