<svg width="200" height="55" viewBox="0 0 200 55" fill="none" xmlns="http://www.w3.org/2000/svg">
<g clip-path="url(#clip0_5_69)">
<path d="M54.2398 0V54.2397H35.6102V52.0702H52.0702V2.16959H36.1599V0H54.2398Z" fill="#0066FF"/>
<path d="M0 54.2397V0H18.6295V2.16959H2.16959V52.0702H18.0799V54.2397H0Z" fill="#0066FF"/>
<path d="M37.2446 39.4648V41.5838H26.1002V32.8114C20.8498 32.5005 16.9951 29.0508 16.9951 22.9398C16.9951 16.8288 21.2475 12.6559 27.4525 12.6559C29.9476 12.6559 31.5241 13.1766 32.2039 13.5238L31.582 15.5849C30.5984 15.122 29.2027 14.7749 27.5393 14.7749C22.8458 14.7749 19.7216 17.7111 19.7216 22.8458C19.7216 27.185 22.0358 30.1211 26.0929 30.6346V21.9996H28.6747V30.6418C29.8102 30.5261 30.8733 30.2586 31.6326 29.897L32.1678 31.9002C31.4663 32.2401 30.2441 32.5872 28.6747 32.7391V39.4504H37.2302L37.2446 39.4648Z" fill="#0066FF"/>
<g opacity="0.8">
<path d="M78.2065 27.4308C77.7653 25.4348 76.2104 23.7932 73.5129 23.7932C70.3381 23.7932 68.183 26.4256 68.183 30.5912C68.183 34.7568 70.3742 37.3893 73.5491 37.3893C76.0586 37.3893 77.7002 36.0658 78.2282 33.8601H81.2439C80.7666 37.5122 77.693 40.094 73.5274 40.094C68.4433 40.094 65.0515 36.507 65.0515 30.5984C65.0515 24.6899 68.4216 21.1029 73.4912 21.1029C78.0835 21.1029 80.8172 24.1403 81.2077 27.4381H78.2065V27.4308Z" fill="#0066FF"/>
<path d="M84.2235 14.2904H87.2971V39.7686H84.2235V14.2904Z" fill="#0066FF"/>
<path d="M90.5442 30.5912C90.5442 24.7261 93.9721 21.0956 99.0562 21.0956C104.14 21.0956 107.547 24.7333 107.547 30.5912C107.547 36.4491 104.119 40.0868 99.0562 40.0868C93.9938 40.0868 90.5442 36.4346 90.5442 30.5912ZM104.422 30.5912C104.422 26.2665 102.303 23.7932 99.0562 23.7932C95.8091 23.7932 93.6684 26.2665 93.6684 30.5912C93.6684 34.9159 95.8018 37.3893 99.0562 37.3893C102.311 37.3893 104.422 34.9159 104.422 30.5912Z" fill="#0066FF"/>
<path d="M125.721 39.7686H122.806V36.7818H122.734C121.642 38.9007 119.732 40.0868 116.905 40.0868C112.898 40.0868 110.548 37.4905 110.548 33.3249V21.4066H113.621V32.7753C113.621 35.7621 115.017 37.3676 117.859 37.3676C120.846 37.3676 122.647 35.3209 122.647 32.1967V21.4066H125.721V39.7686Z" fill="#0066FF"/>
<path d="M128.787 30.5912C128.787 24.8346 131.947 21.0957 136.576 21.0957C139.208 21.0957 141.327 22.3829 142.419 24.4007H142.491V14.3048H145.565V39.7686H142.636V36.6588H142.585C141.399 38.7778 139.302 40.0868 136.655 40.0868C131.976 40.0868 128.801 36.3406 128.801 30.5912H128.787ZM131.933 30.5912C131.933 34.7568 133.979 37.3893 137.227 37.3893C140.474 37.3893 142.506 34.7062 142.506 30.5912C142.506 26.4762 140.387 23.7932 137.227 23.7932C134.066 23.7932 131.933 26.4401 131.933 30.5912Z" fill="#0066FF"/>
<path d="M149.868 14.2904H152.942V39.7686H149.868V14.2904Z" fill="#0066FF"/>
<path d="M156.883 16.4093C156.883 15.3535 157.751 14.5001 158.792 14.5001C159.834 14.5001 160.716 15.3462 160.716 16.4093C160.716 17.4724 159.848 18.3186 158.792 18.3186C157.736 18.3186 156.883 17.4507 156.883 16.4093ZM157.252 21.4066H160.325V39.7686H157.252V21.4066Z" fill="#0066FF"/>
<path d="M165.46 23.9306H162.9V21.4066H165.46V19.36C165.46 15.8308 167.102 14.153 170.494 14.153C171.181 14.153 171.926 14.2253 172.367 14.2976V16.7854C171.998 16.7348 171.484 16.6769 170.971 16.6769C169.315 16.6769 168.519 17.5592 168.519 19.3817V21.4138H172.28V23.9378H168.534V39.7758H165.46V23.9378V23.9306Z" fill="#0066FF"/>
<path d="M179.519 16.9734V21.4066H183.084V23.9306H179.519V34.8436C179.519 36.5214 180.228 37.2808 181.797 37.2808C182.152 37.2808 182.853 37.2302 183.07 37.194V39.7686C182.701 39.8554 181.855 39.9132 181.125 39.9132C177.754 39.9132 176.445 38.5391 176.445 35.0027V23.9306H173.712V21.4066H176.445V16.9734H179.519Z" fill="#0066FF"/>
<path d="M192.884 21.0884C196.68 21.0884 199.472 23.3448 199.609 26.4545H196.68C196.471 24.6899 195.039 23.5907 192.775 23.5907C190.512 23.5907 189.051 24.7044 189.051 26.3099C189.051 27.5827 190.02 28.4289 192.103 28.9568L194.945 29.6438C198.655 30.5767 199.993 31.9219 199.993 34.6194C199.993 37.8159 196.977 40.0723 192.681 40.0723C188.653 40.0723 185.847 37.881 185.529 34.6339H188.602C188.935 36.5431 190.389 37.5628 192.876 37.5628C195.364 37.5628 196.905 36.507 196.905 34.8436C196.905 33.5346 196.145 32.8331 194.077 32.2835L190.844 31.4518C187.612 30.6201 186.021 28.964 186.021 26.4545C186.021 23.3086 188.827 21.0667 192.869 21.0667L192.884 21.0884Z" fill="#0066FF"/>
</g>
</g>
<defs>
<clipPath id="clip0_5_69">
<rect width="200" height="54.2397" fill="white"/>
</clipPath>
</defs>
</svg>
