<svg width="78" height="86" viewBox="0 0 78 86" fill="none" xmlns="http://www.w3.org/2000/svg">
<path d="M0.914062 0V75.153H12.6328V85.1291H77.0859V9.97606H65.3672V0H0.914062ZM6.77344 70.165V4.98803H59.5078V70.165C57.2195 70.165 9.39355 70.165 6.77344 70.165ZM71.2266 14.9641V80.141H18.4922V75.153H65.3672V14.9641H71.2266Z" fill="#1E1E1E"/>
<path d="M31.2334 17.6243L27.0903 14.0973L20.1725 19.9863L16.6117 16.9551L12.4684 20.4821L20.1725 27.0406L31.2334 17.6243Z" fill="#1E1E1E"/>
<path d="M33.1406 20.1184H53.6484V25.1064H33.1406V20.1184Z" fill="#1E1E1E"/>
<path d="M39 40.0706H53.6484V45.0586H39V40.0706Z" fill="#1E1E1E"/>
<path d="M12.6328 45.0586H30.2109V30.0945H12.6328V45.0586ZM18.4922 35.0825H24.3516V40.0705H18.4922V35.0825Z" fill="#1E1E1E"/>
<path d="M39 60.0227H53.6484V65.0107H39V60.0227Z" fill="#1E1E1E"/>
<path d="M30.2109 50.0466H12.6328V65.0107H30.2109V50.0466ZM24.3516 60.0227H18.4922V55.0347H24.3516V60.0227Z" fill="#1E1E1E"/>
</svg>
